<svg id="Layer_1" data-name="Layer 1" xmlns="http://www.w3.org/2000/svg" viewBox="0 0 29.79 29.75"><defs><style>.cls-1,.cls-3,.cls-4{fill:none;stroke-miterlimit:10;}.cls-1,.cls-3{stroke:#888;stroke-width:2.06px;}.cls-2{fill:#888;}.cls-3{stroke-linecap:round;}.cls-4{stroke:#fff;}</style></defs><title>logo</title><polyline class="cls-1" points="6.63 17.31 8.11 5.02 14.9 1.18 21.68 5.02 23.16 17.31"/><path class="cls-2" d="M16,22.25l.47.29a22.72,22.72,0,0,0,9.18,3.14A17.33,17.33,0,0,0,29.08,21c-.75,0-1.5,0-2.25-.1A27.26,27.26,0,0,1,16,17.69,27.26,27.26,0,0,1,5.17,20.92c-.75.07-1.5.09-2.25.1a17.33,17.33,0,0,0,3.43,4.66,22.72,22.72,0,0,0,9.18-3.14Z" transform="translate(-1.1 -0.54)"/><path class="cls-2" d="M5,19.11a25.12,25.12,0,0,0,10.53-3.25l.46-.27.46.27A25.21,25.21,0,0,0,27,19.11a25.09,25.09,0,0,0,2.87.09,17.89,17.89,0,0,0,1-4.69.81.81,0,0,0-.95-.84,18.06,18.06,0,0,1-5,.14A18.77,18.77,0,0,1,16.84,11a1.55,1.55,0,0,0-1.68,0,18.77,18.77,0,0,1-8.1,2.81,18.06,18.06,0,0,1-5-.14.81.81,0,0,0-.95.84,17.89,17.89,0,0,0,1,4.69C3.09,19.21,4.05,19.19,5,19.11Z" transform="translate(-1.1 -0.54)"/><path class="cls-2" d="M16,24.32A24.16,24.16,0,0,1,8.13,27.2,14.39,14.39,0,0,0,16,30.28a14.39,14.39,0,0,0,7.87-3.08A24.16,24.16,0,0,1,16,24.32Z" transform="translate(-1.1 -0.54)"/><line class="cls-3" x1="14.9" y1="1.18" x2="26.35" y2="7.66"/><line class="cls-3" x1="14.9" y1="1.18" x2="3.44" y2="7.66"/><path class="cls-4" d="M25.09,14.47" transform="translate(-1.1 -0.54)"/></svg>